# xmcd
# 
# Track frame offsets:
#     150
#     18464
#     33335
#     48794
#     66644
#     88967
#     107142
#     122322
#     137869
#     154488
#     167233
# 
# Disc length: 2416
# 
# Revision: 0
# Processed by: cddbd v1.5.2PL0 Copyright (c) Steve Scherf et al.
# Submitted via: fre:ac v1.0.31
# 
DISCID=99096e0b
DTITLE=Malukah - I Follow the Moon
DYEAR=2019
DGENRE=Folk
TTITLE0=I Follow the Moon
TTITLE1=Bringing Me Down
TTITLE2=Running From, Running From
TTITLE3=I Gotta Leave
TTITLE4=In the Darkness (Feat. KSherwoodOps)
TTITLE5=You Make It Easy
TTITLE6=Safe Asleep
TTITLE7=Duele Despertar
TTITLE8=Where Did You Go?
TTITLE9=Thor the Chocolate Lab
TTITLE10=The Only Constant Thing
EXTD=
EXTT0=
EXTT1=
EXTT2=
EXTT3=
EXTT4=
EXTT5=
EXTT6=
EXTT7=
EXTT8=
EXTT9=
EXTT10=
PLAYORDER=
